<svg xmlns="http://www.w3.org/2000/svg" xmlns:xlink="http://www.w3.org/1999/xlink" width="500" zoomAndPan="magnify" viewBox="0 0 375 374.999991" height="500" preserveAspectRatio="xMidYMid meet" version="1.0"><defs><clipPath id="08e78d804d"><path d="M 183 38 L 277 38 L 277 133 L 183 133 Z M 183 38 " clip-rule="nonzero"/></clipPath><clipPath id="7f71f27fae"><path d="M 176.105469 -38.511719 L 346.433594 131.816406 L 130.539062 347.710938 L -39.789062 177.382812 Z M 176.105469 -38.511719 " clip-rule="nonzero"/></clipPath><clipPath id="cbd9e02198"><path d="M 176.105469 -38.511719 L 346.433594 131.816406 L 130.539062 347.710938 L -39.789062 177.382812 Z M 176.105469 -38.511719 " clip-rule="nonzero"/></clipPath><clipPath id="6156b41106"><path d="M 69 51 L 265 51 L 265 326 L 69 326 Z M 69 51 " clip-rule="nonzero"/></clipPath><clipPath id="e90fd8a87a"><path d="M 176.105469 -38.511719 L 346.433594 131.816406 L 130.539062 347.710938 L -39.789062 177.382812 Z M 176.105469 -38.511719 " clip-rule="nonzero"/></clipPath><clipPath id="f71beaae49"><path d="M 176.105469 -38.511719 L 346.433594 131.816406 L 130.539062 347.710938 L -39.789062 177.382812 Z M 176.105469 -38.511719 " clip-rule="nonzero"/></clipPath><clipPath id="a6c9bd312b"><path d="M 10 124 L 110 124 L 110 229 L 10 229 Z M 10 124 " clip-rule="nonzero"/></clipPath><clipPath id="1deab5a2ff"><path d="M 176.105469 -38.511719 L 346.433594 131.816406 L 130.539062 347.710938 L -39.789062 177.382812 Z M 176.105469 -38.511719 " clip-rule="nonzero"/></clipPath><clipPath id="806be5a5fe"><path d="M 176.105469 -38.511719 L 346.433594 131.816406 L 130.539062 347.710938 L -39.789062 177.382812 Z M 176.105469 -38.511719 " clip-rule="nonzero"/></clipPath><clipPath id="3015bc213a"><path d="M 140.515625 67 L 362.984375 67 L 362.984375 289 L 140.515625 289 Z M 140.515625 67 " clip-rule="nonzero"/></clipPath><clipPath id="a5ca924bf0"><path d="M 142 68 L 362 68 L 362 286 L 142 286 Z M 142 68 " clip-rule="nonzero"/></clipPath><clipPath id="2d3b56fe03"><path d="M 243.25 285.40625 C 236.367188 284.628906 228.257812 283.035156 227.855469 282.378906 C 227.609375 281.980469 228.726562 281.398438 230.34375 281.085938 C 234.207031 280.335938 234.273438 280.335938 240.179688 281.058594 C 243.539062 281.46875 245.476562 281.34375 245.882812 280.683594 C 246.320312 279.980469 247.5625 280.109375 250.09375 281.125 C 253.316406 282.414062 255.835938 282.472656 260.019531 281.363281 C 260.8125 281.148438 261.269531 281.515625 261.113281 282.242188 C 260.929688 283.117188 261.332031 283.285156 262.472656 282.800781 C 263.367188 282.425781 265.320312 282.183594 266.816406 282.265625 L 269.535156 282.410156 L 267.351562 280.871094 L 265.167969 279.335938 L 267.242188 278.566406 C 268.5625 278.078125 269.773438 278.179688 270.578125 278.847656 C 272.199219 280.195312 283.351562 279.234375 287.828125 277.363281 C 289.605469 276.621094 292.332031 276 293.890625 275.984375 C 295.449219 275.964844 297.746094 275.367188 298.992188 274.65625 C 301.511719 273.214844 303.523438 272.925781 303.523438 274 C 303.523438 274.816406 294.636719 278.773438 286.753906 281.46875 C 276.050781 285.128906 256.472656 286.898438 243.25 285.40625 Z M 267.460938 270.859375 C 264.203125 269.523438 262.382812 266.289062 263.859375 264.457031 C 264.503906 263.660156 264.40625 263.320312 263.527344 263.3125 C 262.652344 263.300781 262.59375 263.097656 263.328125 262.632812 C 263.902344 262.265625 264.648438 259.925781 264.984375 257.433594 C 265.324219 254.941406 266.132812 251.066406 266.785156 248.824219 C 267.433594 246.578125 267.960938 243.929688 267.953125 242.933594 C 267.9375 241.011719 268.734375 234.964844 269.660156 229.945312 C 270.402344 225.921875 268.613281 222.800781 264.308594 220.601562 C 262.398438 219.628906 260.613281 218.136719 260.34375 217.285156 C 258.996094 213.0625 255.859375 206.742188 253.363281 203.210938 C 250.925781 199.765625 252.589844 192.398438 256.621094 188.796875 C 259.050781 186.628906 259.464844 185.679688 259.222656 182.851562 C 259.0625 181 258.605469 179.28125 258.203125 179.03125 C 257.800781 178.78125 257.433594 178.171875 257.386719 177.671875 C 257.335938 177.175781 256.789062 176.765625 256.164062 176.765625 C 255.542969 176.765625 255.128906 177.265625 255.25 177.875 C 255.535156 179.3125 250.101562 178.308594 248.402344 176.609375 C 247.738281 175.949219 246.820312 175.40625 246.355469 175.40625 C 245.894531 175.40625 245.515625 174.867188 245.515625 174.203125 C 245.515625 172.261719 241.6875 169.308594 238.265625 168.609375 C 236.519531 168.25 234.199219 167.140625 233.105469 166.136719 C 231.773438 164.914062 229.605469 164.230469 226.523438 164.066406 C 221.800781 163.808594 216.945312 161.5 217.894531 159.957031 C 218.191406 159.480469 217.210938 159.09375 215.710938 159.09375 C 212.316406 159.09375 211.269531 157.574219 213.476562 155.847656 C 214.398438 155.125 214.707031 154.640625 214.164062 154.773438 C 213.34375 154.972656 209.859375 151.433594 207.261719 147.761719 C 206.910156 147.265625 205.382812 145.429688 203.867188 143.683594 L 201.113281 140.511719 L 202.535156 143.457031 C 203.316406 145.078125 204.320312 146.402344 204.765625 146.402344 C 205.214844 146.402344 205.359375 146.972656 205.09375 147.671875 C 204.824219 148.367188 205.042969 149.207031 205.574219 149.535156 C 206.105469 149.867188 206.542969 150.785156 206.542969 151.582031 C 206.542969 152.839844 206.308594 152.816406 204.730469 151.386719 C 203.730469 150.484375 202.917969 149.1875 202.917969 148.5 C 202.917969 147.8125 202.292969 147.011719 201.53125 146.71875 C 200.683594 146.394531 200.34375 145.554688 200.660156 144.558594 C 200.945312 143.664062 200.753906 142.667969 200.234375 142.347656 C 199.714844 142.027344 199.289062 141.03125 199.289062 140.136719 C 199.289062 139.242188 198.308594 137.449219 197.105469 136.152344 C 193.777344 132.558594 192.859375 126.753906 194.847656 121.851562 C 196.675781 117.347656 197.027344 113.773438 195.648438 113.773438 C 195.125 113.773438 194.960938 112.832031 195.269531 111.605469 C 195.566406 110.414062 195.371094 109.167969 194.832031 108.835938 C 194.289062 108.5 193.851562 108.859375 193.851562 109.640625 C 193.851562 110.417969 193.429688 111.054688 192.910156 111.054688 C 192.394531 111.054688 192.050781 110.136719 192.148438 109.015625 C 192.480469 105.144531 192.035156 103.804688 190.417969 103.804688 C 188.359375 103.804688 181.96875 107.035156 181.03125 108.546875 C 180.644531 109.179688 180.003906 109.699219 179.609375 109.707031 C 179.21875 109.710938 177.011719 111.023438 174.707031 112.617188 C 172.402344 114.210938 170.277344 115.277344 169.984375 114.984375 C 169.691406 114.691406 170.761719 113.570312 172.355469 112.496094 C 173.953125 111.417969 175.398438 109.738281 175.570312 108.757812 C 175.742188 107.777344 177.375 105.652344 179.203125 104.03125 C 181.027344 102.414062 181.753906 101.355469 180.8125 101.683594 C 178.210938 102.589844 179.441406 99.96875 182.265625 98.589844 C 183.546875 97.964844 184.839844 96.539062 185.136719 95.417969 C 185.851562 92.722656 192.113281 88.402344 195.355469 88.363281 C 196.773438 88.347656 200.378906 87.8125 203.371094 87.175781 C 206.359375 86.539062 210.308594 86.121094 212.144531 86.246094 C 214.890625 86.433594 215.460938 86.179688 215.359375 84.824219 C 215.261719 83.484375 214.9375 83.359375 213.648438 84.164062 C 212.777344 84.707031 211.78125 84.875 211.4375 84.53125 C 210.574219 83.664062 212.816406 81.144531 214.453125 81.144531 C 215.242188 81.144531 215.59375 80.613281 215.304688 79.859375 C 214.980469 79.011719 215.953125 78.070312 218.15625 77.101562 C 219.992188 76.292969 220.679688 75.816406 219.683594 76.042969 C 217.292969 76.589844 211.929688 78.46875 209.953125 79.453125 C 209.089844 79.886719 207.558594 80.238281 206.554688 80.238281 C 205.550781 80.238281 204.730469 80.597656 204.730469 81.035156 C 204.730469 81.824219 198.269531 84.417969 193.851562 85.402344 C 191.890625 85.839844 192.011719 85.613281 194.757812 83.726562 C 204.574219 76.980469 213.296875 73.265625 226.746094 70.109375 C 233.640625 68.488281 237.933594 68.144531 251.40625 68.121094 C 267.664062 68.089844 279.863281 69.550781 277.1875 71.207031 C 276.515625 71.621094 275.625 71.75 275.207031 71.492188 C 274.789062 71.234375 270.210938 70.898438 265.035156 70.75 C 257.136719 70.519531 255.703125 70.6875 256.125 71.785156 C 256.402344 72.503906 257.136719 72.894531 257.761719 72.65625 C 259.320312 72.058594 266.636719 75.878906 271.375 79.757812 C 273.523438 81.515625 275.621094 82.957031 276.039062 82.957031 C 276.460938 82.957031 277.332031 83.804688 277.980469 84.839844 C 279.011719 86.492188 278.9375 86.78125 277.382812 87.1875 C 275.046875 87.800781 274.410156 91.484375 275.90625 95.722656 C 276.5625 97.582031 276.902344 99.304688 276.664062 99.546875 C 275.835938 100.375 270.476562 97.117188 266.984375 93.660156 C 265.0625 91.753906 263.054688 90.464844 262.519531 90.796875 C 261.984375 91.125 261.8125 90.972656 262.132812 90.449219 C 262.453125 89.929688 262.089844 88.988281 261.328125 88.351562 C 260.5625 87.71875 260.144531 86.652344 260.402344 85.984375 C 260.664062 85.300781 260.273438 84.769531 259.507812 84.769531 C 258.761719 84.769531 257.914062 84.15625 257.628906 83.410156 C 257.339844 82.664062 256.671875 82.050781 256.140625 82.050781 C 255.609375 82.050781 254.515625 81.453125 253.707031 80.71875 C 252.621094 79.738281 251.53125 79.597656 249.554688 80.1875 C 248.082031 80.628906 247.417969 81.023438 248.082031 81.066406 C 250.035156 81.191406 256.523438 88.292969 256.242188 90 C 256.101562 90.863281 256.253906 91.996094 256.582031 92.515625 C 256.910156 93.039062 256.808594 94.058594 256.359375 94.78125 C 255.660156 95.902344 254.957031 95.792969 251.660156 94.058594 C 249.527344 92.933594 247.09375 92.015625 246.25 92.019531 C 244.195312 92.019531 243.246094 90.328125 244.9375 89.679688 C 245.675781 89.394531 246.515625 88.554688 246.800781 87.8125 C 247.1875 86.800781 246.867188 86.605469 245.511719 87.039062 C 244.179688 87.460938 243.703125 87.195312 243.703125 86.039062 C 243.703125 85.175781 243.433594 84.734375 243.109375 85.0625 C 242.78125 85.390625 242.066406 85.289062 241.519531 84.839844 C 240.835938 84.273438 240.535156 84.996094 240.542969 87.183594 C 240.550781 89.253906 241.105469 90.65625 242.148438 91.238281 C 243.023438 91.730469 243.550781 92.441406 243.316406 92.820312 C 243.085938 93.195312 243.992188 93.34375 245.339844 93.148438 C 246.988281 92.910156 249.109375 93.691406 251.859375 95.550781 C 255.003906 97.671875 256.007812 98 256.234375 96.976562 C 256.679688 94.949219 257.527344 95.328125 261.386719 99.28125 C 263.339844 101.28125 265.335938 102.785156 265.820312 102.625 C 266.84375 102.285156 269.210938 104.492188 271.390625 107.820312 C 272.917969 110.152344 275.132812 111.144531 274.050781 109.015625 C 273.734375 108.390625 274.324219 108.84375 275.359375 110.023438 C 276.394531 111.199219 277.234375 112.828125 277.226562 113.648438 C 277.214844 114.9375 277.097656 114.953125 276.332031 113.773438 C 275.550781 112.566406 275.445312 112.566406 275.371094 113.773438 C 275.3125 114.707031 275.140625 114.777344 274.828125 114 C 274.097656 112.1875 270.167969 112.582031 270.316406 114.453125 C 270.394531 115.457031 269.695312 116.144531 268.402344 116.328125 C 267.28125 116.488281 266.363281 117.050781 266.363281 117.582031 C 266.363281 118.179688 264.996094 118.359375 262.738281 118.058594 C 259.777344 117.660156 259.109375 117.847656 259.09375 119.070312 C 259.082031 119.894531 258.273438 121.589844 257.300781 122.835938 C 256.324219 124.082031 255.519531 125.664062 255.507812 126.347656 C 255.488281 127.402344 255.246094 127.402344 253.917969 126.347656 C 252.460938 125.191406 252.460938 125.285156 253.953125 127.621094 C 255.726562 130.394531 255.421875 131.3125 251.675781 134.464844 C 249.117188 136.613281 248.285156 140.328125 250.105469 141.453125 C 251.4375 142.273438 252.898438 146.367188 252.238281 147.429688 C 251.453125 148.699219 249.070312 146.449219 247.679688 143.125 C 246.820312 141.070312 245.71875 140.144531 243.628906 139.726562 C 239.175781 138.835938 237.359375 139.039062 237.359375 140.425781 C 237.359375 141.246094 236.726562 141.535156 235.582031 141.238281 C 233.53125 140.699219 228.015625 143.839844 226.027344 146.679688 C 224.28125 149.171875 224.304688 152.160156 226.097656 155.9375 C 227.769531 159.457031 229.121094 160.148438 232.847656 159.40625 C 234.714844 159.03125 235.738281 158.183594 236.109375 156.710938 C 236.40625 155.527344 237.113281 154.527344 237.683594 154.492188 C 238.253906 154.453125 239.429688 154.285156 240.300781 154.117188 C 242.664062 153.664062 243.042969 155.078125 241.40625 158.242188 C 240.601562 159.800781 240.175781 161.304688 240.457031 161.585938 C 240.738281 161.867188 240.5 162.660156 239.929688 163.351562 C 239.066406 164.386719 239.476562 164.539062 242.308594 164.226562 C 247.921875 163.609375 249.03125 164.253906 248.980469 168.109375 C 248.890625 174.613281 251 177.320312 254.644531 175.371094 C 255.847656 174.726562 256.941406 174.730469 258.144531 175.375 C 260.476562 176.621094 260.585938 176.601562 262.566406 174.472656 C 263.507812 173.460938 265.054688 172.476562 266 172.285156 C 266.949219 172.09375 268.503906 171.628906 269.457031 171.25 C 270.671875 170.769531 270.996094 170.882812 270.535156 171.628906 C 270.175781 172.210938 270.3125 172.6875 270.839844 172.6875 C 271.367188 172.6875 271.800781 172.304688 271.800781 171.835938 C 271.800781 171.367188 272.894531 171.550781 274.226562 172.242188 C 275.5625 172.933594 277.054688 173.253906 277.539062 172.953125 C 278.027344 172.652344 278.164062 172.832031 277.84375 173.351562 C 277.523438 173.871094 278.171875 174.539062 279.289062 174.839844 C 282.140625 175.601562 282.863281 175.535156 282.261719 174.5625 C 281.976562 174.097656 282.21875 173.425781 282.800781 173.0625 C 283.464844 172.652344 283.621094 172.800781 283.21875 173.453125 C 282.617188 174.425781 283.878906 174.859375 286.984375 174.742188 C 287.605469 174.71875 288.121094 175.371094 288.132812 176.1875 C 288.15625 178.265625 294.332031 183.148438 297.8125 183.832031 C 301.316406 184.527344 304.429688 187.027344 304.429688 189.148438 C 304.429688 190.007812 304.863281 190.976562 305.394531 191.304688 C 306.027344 191.695312 305.800781 192.574219 304.738281 193.851562 C 303.847656 194.921875 303.695312 195.292969 304.398438 194.675781 C 305.4375 193.765625 306.761719 194.152344 311.429688 196.71875 C 314.59375 198.457031 317.921875 199.878906 318.824219 199.878906 C 319.726562 199.878906 321.175781 200.667969 322.050781 201.628906 C 322.921875 202.59375 324.207031 203.160156 324.910156 202.894531 C 325.832031 202.539062 326.183594 203.164062 326.183594 205.144531 C 326.183594 207.078125 324.992188 209.28125 322.148438 212.613281 C 319.933594 215.210938 317.839844 218.609375 317.503906 220.164062 C 316.574219 224.453125 312.507812 229.628906 309.1875 230.746094 C 307.566406 231.292969 306.242188 232.3125 306.242188 233.011719 C 306.242188 233.707031 305.121094 235 303.75 235.882812 C 302.378906 236.761719 300.523438 238.394531 299.625 239.503906 C 295.171875 245.011719 290.324219 248.871094 288.304688 248.519531 C 286.738281 248.242188 286.292969 248.535156 286.492188 249.707031 C 286.773438 251.375 284.824219 254.261719 283.414062 254.261719 C 282.941406 254.261719 280.339844 256.171875 277.632812 258.511719 C 274.359375 261.335938 273.070312 262.988281 273.792969 263.433594 C 274.554688 263.90625 274.214844 264.664062 272.660156 265.980469 C 270.578125 267.738281 270.539062 267.933594 272.027344 269.089844 C 272.898438 269.765625 273.613281 270.535156 273.613281 270.796875 C 273.613281 271.945312 270.1875 271.980469 267.460938 270.859375 Z M 263.8125 114.964844 C 263.160156 114.703125 262.375 114.734375 262.074219 115.035156 C 261.773438 115.335938 262.308594 115.550781 263.265625 115.511719 C 264.320312 115.46875 264.535156 115.253906 263.8125 114.964844 Z M 269.957031 110.855469 C 269.972656 110.496094 269.375 110.4375 268.628906 110.726562 C 267.832031 111.03125 267.261719 110.734375 267.253906 110.015625 C 267.242188 109.015625 267.089844 109.023438 266.433594 110.0625 C 265.941406 110.835938 266.015625 112.195312 266.613281 113.511719 L 267.605469 115.683594 L 268.765625 113.59375 C 269.402344 112.445312 269.9375 111.210938 269.957031 110.855469 Z M 240.984375 113.402344 C 240.984375 113.222656 240.050781 112.460938 238.910156 111.714844 C 237.054688 110.5 236.648438 110.515625 234.96875 111.875 C 233.148438 113.347656 233.207031 113.394531 237.039062 113.5625 C 239.210938 113.65625 240.984375 113.585938 240.984375 113.402344 Z M 238.804688 108.738281 C 237.160156 107.535156 237.15625 107.449219 238.71875 106.847656 C 239.617188 106.503906 241.886719 106.628906 243.753906 107.128906 C 246.640625 107.898438 247.078125 107.828125 246.636719 106.675781 C 246.296875 105.796875 246.484375 105.546875 247.167969 105.96875 C 247.746094 106.324219 248.9375 106.199219 249.8125 105.691406 C 251.261719 104.847656 251.230469 104.761719 249.480469 104.734375 C 248.003906 104.714844 247.554688 104.140625 247.554688 102.285156 C 247.554688 100.953125 246.789062 99.304688 245.855469 98.621094 C 244.921875 97.9375 244.257812 97.191406 244.382812 96.964844 C 245.007812 95.816406 244.460938 94.738281 243.25 94.738281 C 242.5 94.738281 241.890625 94.296875 241.890625 93.757812 C 241.890625 93.214844 241.378906 92.957031 240.757812 93.179688 C 240.132812 93.402344 238.898438 93.214844 238.015625 92.757812 C 236.765625 92.117188 235.886719 92.550781 234.082031 94.695312 C 232.800781 96.21875 231.425781 97.257812 231.027344 97.011719 C 230.625 96.761719 230.066406 97.164062 229.78125 97.90625 C 229.496094 98.644531 229.558594 99.15625 229.914062 99.046875 C 230.269531 98.9375 231.699219 99.996094 233.09375 101.40625 C 234.679688 103.007812 236.167969 103.757812 237.074219 103.410156 C 238.941406 102.691406 242.074219 103.679688 241.394531 104.773438 C 241.109375 105.234375 240.265625 105.613281 239.515625 105.613281 C 238.71875 105.613281 238.425781 105.179688 238.804688 104.566406 C 239.207031 103.914062 239.050781 103.765625 238.390625 104.175781 C 237.804688 104.539062 237.5625 105.210938 237.851562 105.675781 C 238.136719 106.140625 237.9375 106.519531 237.410156 106.519531 C 236.882812 106.519531 236.453125 106.113281 236.453125 105.613281 C 236.453125 104.019531 233.054688 104.644531 232.617188 106.320312 C 232.117188 108.226562 234.230469 110.636719 235.125 109.1875 C 235.527344 108.535156 236.058594 108.535156 236.84375 109.1875 C 237.46875 109.707031 238.246094 109.863281 238.574219 109.535156 C 238.902344 109.207031 239.171875 109.480469 239.171875 110.144531 C 239.171875 110.8125 239.476562 111.050781 239.847656 110.675781 C 240.222656 110.304688 239.75 109.429688 238.804688 108.738281 Z M 245.515625 103.855469 C 245.515625 103.386719 245.917969 102.753906 246.410156 102.449219 C 246.925781 102.128906 247.078125 102.496094 246.765625 103.300781 C 246.164062 104.871094 245.515625 105.160156 245.515625 103.855469 Z M 234.132812 101.5625 C 233.164062 100.832031 232.847656 100.222656 233.429688 100.203125 C 235.152344 100.15625 237.359375 101.214844 237.359375 102.085938 C 237.359375 103.273438 236.128906 103.074219 234.132812 101.5625 Z M 264.550781 110.40625 C 264.550781 110.296875 263.777344 109.796875 262.832031 109.289062 C 261.605469 108.636719 260.847656 108.691406 260.1875 109.484375 C 259.496094 110.324219 259.921875 110.597656 261.90625 110.597656 C 263.359375 110.597656 264.550781 110.511719 264.550781 110.40625 Z M 250.953125 108.332031 C 250.953125 107.835938 250.316406 107.425781 249.539062 107.425781 C 248.761719 107.425781 248.378906 107.835938 248.6875 108.332031 C 248.996094 108.832031 249.632812 109.238281 250.101562 109.238281 C 250.570312 109.238281 250.953125 108.832031 250.953125 108.332031 Z M 254.125 108.332031 C 253.816406 107.835938 253.386719 107.425781 253.164062 107.425781 C 252.945312 107.425781 252.765625 107.835938 252.765625 108.332031 C 252.765625 108.832031 253.199219 109.238281 253.726562 109.238281 C 254.253906 109.238281 254.433594 108.832031 254.125 108.332031 Z M 224.667969 103.769531 C 223.519531 103.003906 223.695312 102.523438 225.800781 100.65625 C 227.171875 99.441406 228.292969 97.945312 228.292969 97.328125 C 228.292969 96.710938 227.714844 96.996094 227.007812 97.960938 C 226.300781 98.929688 225.417969 99.414062 225.046875 99.042969 C 224.671875 98.667969 224.84375 98.363281 225.425781 98.363281 C 226.003906 98.363281 226.480469 97.75 226.480469 97.003906 C 226.480469 95.246094 224.765625 95.242188 224.09375 97 C 223.804688 97.742188 223.199219 98.125 222.746094 97.84375 C 222.292969 97.5625 222.15625 96.953125 222.441406 96.488281 C 222.726562 96.023438 222.554688 95.644531 222.058594 95.644531 C 221.558594 95.644531 220.894531 96.058594 220.582031 96.566406 C 220.269531 97.070312 219.589844 97.226562 219.070312 96.90625 C 218.464844 96.53125 218.566406 96.046875 219.359375 95.542969 C 220.363281 94.910156 220.335938 94.769531 219.230469 94.785156 C 217.507812 94.808594 212.921875 97.382812 214.527344 97.425781 C 215.179688 97.441406 215.484375 97.828125 215.203125 98.277344 C 214.925781 98.730469 215.613281 98.910156 216.738281 98.675781 L 218.777344 98.25 L 216.6875 99.496094 L 214.597656 100.746094 L 217.117188 101.894531 C 218.933594 102.722656 219.730469 102.757812 219.972656 102.023438 C 220.21875 101.289062 220.679688 101.308594 221.628906 102.097656 C 222.6875 102.976562 222.714844 103.332031 221.765625 103.933594 C 221 104.417969 221.539062 104.679688 223.308594 104.679688 C 225.425781 104.679688 225.726562 104.480469 224.667969 103.769531 Z M 221.234375 100.535156 C 219.9375 99.132812 220.8125 98.863281 222.726562 100.078125 C 223.402344 100.503906 223.605469 101.066406 223.179688 101.328125 C 222.753906 101.585938 221.878906 101.230469 221.234375 100.535156 Z M 256.8125 100.3125 C 256.304688 99.773438 254.578125 101.136719 254.578125 102.078125 C 254.578125 102.566406 255.148438 102.441406 255.847656 101.796875 C 256.542969 101.15625 256.980469 100.488281 256.8125 100.3125 Z M 231.011719 101.632812 C 231.011719 101.4375 230.378906 101.035156 229.605469 100.738281 C 228.800781 100.425781 228.4375 100.578125 228.753906 101.09375 C 229.285156 101.953125 231.011719 102.367188 231.011719 101.632812 Z M 217.222656 92.4375 C 218.007812 91.753906 217.558594 91.511719 215.597656 91.558594 C 214.109375 91.59375 212.175781 92.414062 211.304688 93.375 C 209.746094 95.09375 209.753906 95.097656 211.664062 93.515625 C 213.691406 91.835938 215.34375 92.769531 214.230469 94.964844 C 213.917969 95.585938 214.214844 95.484375 214.898438 94.738281 C 215.582031 93.988281 216.628906 92.953125 217.222656 92.4375 Z M 224.667969 93.777344 C 224.667969 93.25 224.261719 93.070312 223.761719 93.378906 C 223.265625 93.6875 222.855469 94.117188 222.855469 94.335938 C 222.855469 94.558594 223.265625 94.738281 223.761719 94.738281 C 224.261719 94.738281 224.667969 94.304688 224.667969 93.777344 Z M 219.894531 86.859375 C 219.011719 86.628906 217.789062 86.644531 217.175781 86.890625 C 216.558594 87.140625 217.28125 87.328125 218.777344 87.308594 C 220.273438 87.292969 220.773438 87.089844 219.894531 86.859375 Z M 226.957031 85.847656 C 226.679688 85.570312 225.949219 85.847656 225.332031 86.46875 C 224.445312 87.363281 224.550781 87.46875 225.839844 86.976562 C 226.734375 86.632812 227.238281 86.128906 226.957031 85.847656 Z M 237.359375 84.714844 C 237.359375 84.246094 237.019531 83.859375 236.601562 83.859375 C 236.1875 83.859375 235.847656 84.453125 235.847656 85.179688 C 235.847656 85.90625 236.1875 86.289062 236.601562 86.035156 C 237.019531 85.777344 237.359375 85.183594 237.359375 84.714844 Z M 233.722656 82.9375 C 233.183594 81.929688 233.042969 80.601562 233.410156 79.992188 C 233.832031 79.289062 233.503906 79.34375 232.523438 80.140625 C 231.066406 81.324219 231.0625 81.507812 232.492188 83.085938 C 234.476562 85.277344 234.945312 85.222656 233.722656 82.9375 Z M 229.125 83.535156 C 228.917969 83.355469 227.523438 82.9375 226.027344 82.601562 C 224.042969 82.15625 223.675781 82.242188 224.667969 82.914062 C 225.894531 83.742188 230.035156 84.320312 229.125 83.535156 Z M 221.042969 81.058594 C 222.253906 80.203125 222.253906 80.140625 221.042969 80.496094 C 220.296875 80.71875 218.867188 80.476562 217.871094 79.964844 C 216.25 79.132812 216.191406 79.191406 217.304688 80.539062 C 218.75 82.296875 219.207031 82.359375 221.042969 81.058594 Z M 225.574219 79.8125 C 225.574219 78.96875 225.046875 78.683594 224.140625 79.03125 C 222.984375 79.472656 222.941406 79.730469 223.914062 80.347656 C 225.523438 81.367188 225.574219 81.351562 225.574219 79.8125 Z M 249.503906 79.328125 C 253.066406 79.328125 249.421875 77.34375 245.492188 77.140625 C 243.121094 77.019531 241.230469 76.363281 240.542969 75.417969 C 238.925781 73.210938 238.265625 73.53125 238.265625 76.523438 C 238.265625 78.683594 238.582031 79.078125 240.019531 78.699219 C 240.988281 78.449219 242.703125 78.890625 243.835938 79.683594 C 245.195312 80.636719 246.199219 80.820312 246.792969 80.226562 C 247.285156 79.734375 248.507812 79.328125 249.503906 79.328125 Z M 229.203125 79.328125 C 229.203125 78.832031 228.769531 78.421875 228.242188 78.421875 C 227.714844 78.421875 227.535156 78.832031 227.839844 79.328125 C 228.148438 79.828125 228.582031 80.234375 228.800781 80.234375 C 229.019531 80.234375 229.203125 79.828125 229.203125 79.328125 Z M 253.84375 70.554688 C 253.1875 70.289062 252.40625 70.324219 252.105469 70.625 C 251.804688 70.925781 252.339844 71.140625 253.296875 71.101562 C 254.351562 71.058594 254.566406 70.84375 253.84375 70.554688 Z M 277.867188 269.082031 C 276.902344 268.117188 278.136719 266.945312 280.121094 266.945312 C 281.683594 266.945312 281.804688 267.171875 280.863281 268.304688 C 279.644531 269.773438 278.78125 269.996094 277.867188 269.082031 Z M 180.714844 247.035156 C 178.222656 244.132812 176.019531 241.910156 175.816406 242.101562 C 175.617188 242.292969 174.484375 241.136719 173.300781 239.535156 C 171.101562 236.554688 168.046875 234.40625 165.933594 234.347656 C 165.28125 234.328125 164.988281 234.707031 165.285156 235.183594 C 165.605469 235.703125 164.726562 235.671875 163.097656 235.105469 C 160.976562 234.367188 159.75 232.832031 157.523438 228.117188 C 152.933594 218.40625 152.878906 218.167969 154.980469 217.039062 C 156.039062 216.476562 156.625 215.492188 156.339844 214.757812 C 156.070312 214.046875 156.242188 213.46875 156.722656 213.46875 C 157.207031 213.46875 157.601562 212.832031 157.601562 212.050781 C 157.601562 211.101562 158.273438 210.730469 159.640625 210.917969 C 161.054688 211.117188 161.683594 210.734375 161.691406 209.679688 C 161.699219 208.84375 162.003906 207.855469 162.371094 207.488281 C 162.738281 207.121094 163.039062 207.265625 163.039062 207.808594 C 163.039062 208.347656 164.261719 209.0625 165.757812 209.390625 C 167.253906 209.71875 168.476562 210.5 168.476562 211.128906 C 168.476562 211.757812 169.601562 212.832031 170.972656 213.519531 C 172.339844 214.207031 173.6875 214.890625 173.960938 215.039062 C 174.238281 215.191406 174.296875 213.878906 174.089844 212.125 C 173.632812 208.21875 175.34375 207.835938 176.183594 211.65625 C 176.511719 213.152344 177.125 214.375 177.542969 214.375 C 177.964844 214.375 178.808594 215.902344 179.417969 217.773438 C 180.027344 219.644531 181.386719 222.050781 182.433594 223.125 C 185.164062 225.925781 186.605469 227.796875 186.605469 228.539062 C 186.605469 228.894531 187.25 229.898438 188.035156 230.765625 C 189.941406 232.875 190.394531 239.667969 188.777344 241.972656 C 188.082031 242.96875 187.511719 244.5 187.511719 245.375 C 187.511719 246.328125 186.582031 247.203125 185.199219 247.550781 C 182.917969 248.121094 182.910156 248.144531 184.746094 249.429688 C 186.5625 250.699219 187.28125 252.503906 185.925781 252.378906 C 185.550781 252.347656 183.207031 249.941406 180.714844 247.035156 Z M 187.824219 232.914062 C 187.53125 232.148438 187.09375 231.710938 186.855469 231.949219 C 186.617188 232.1875 186.691406 232.816406 187.019531 233.347656 C 187.914062 234.792969 188.4375 234.511719 187.824219 232.917969 Z M 196.171875 250.710938 C 195.632812 249.839844 202.585938 246.105469 204.792969 246.082031 C 205.882812 246.070312 205.871094 245.925781 204.734375 245.191406 C 203.660156 244.5 203.636719 244.308594 204.621094 244.296875 C 205.519531 244.289062 205.714844 243.527344 205.320312 241.566406 C 205.015625 240.03125 205.164062 238.847656 205.660156 238.847656 C 206.148438 238.847656 206.546875 239.253906 206.546875 239.753906 C 206.546875 240.25 207.398438 241.511719 208.441406 242.554688 L 210.335938 244.449219 L 208.214844 245.949219 C 207.046875 246.769531 205.886719 247.449219 205.640625 247.453125 C 205.390625 247.457031 203.898438 248.378906 202.328125 249.496094 C 199.320312 251.640625 197.027344 252.09375 196.171875 250.710938 Z M 204.914062 228.695312 C 204.316406 228.097656 203.828125 227.28125 203.828125 226.882812 C 203.828125 225.546875 205.191406 226.136719 206.335938 227.96875 C 207.574219 229.953125 206.648438 230.429688 204.914062 228.695312 Z M 347.484375 227.742188 C 347.851562 226.621094 348.519531 221.21875 348.972656 215.734375 C 349.460938 209.832031 350.378906 204.726562 351.214844 203.222656 C 352.40625 201.085938 352.464844 199.980469 351.5625 196.226562 C 350.96875 193.746094 350.765625 190.148438 351.109375 188.117188 C 351.667969 184.820312 351.542969 184.464844 349.835938 184.464844 C 348.757812 184.464844 347.941406 183.878906 347.941406 183.105469 C 347.941406 181.390625 346.203125 181.40625 343.910156 183.136719 C 342.941406 183.871094 341.425781 184.246094 340.546875 183.964844 C 339.667969 183.6875 338.160156 183.878906 337.195312 184.394531 C 334.921875 185.609375 331.019531 182.683594 329.242188 178.425781 C 328.546875 176.765625 327.476562 175.507812 326.859375 175.628906 C 326.054688 175.789062 325.734375 174.132812 325.734375 169.824219 C 325.734375 166.503906 326.058594 163.988281 326.449219 164.230469 C 326.839844 164.472656 327.078125 163.3125 326.972656 161.652344 C 326.867188 159.992188 327.5625 157.207031 328.515625 155.460938 C 329.46875 153.714844 330.253906 151.675781 330.257812 150.929688 C 330.265625 150.179688 330.675781 149.625 331.175781 149.695312 C 332.421875 149.871094 337.289062 146.320312 336.664062 145.691406 C 336.382812 145.414062 336.832031 144.4375 337.65625 143.523438 C 338.484375 142.613281 338.84375 141.863281 338.453125 141.863281 C 338.066406 141.863281 338.308594 141.152344 338.992188 140.277344 C 340.121094 138.839844 340.089844 138.808594 338.652344 139.9375 C 337.78125 140.621094 337.015625 140.925781 336.953125 140.617188 C 336.890625 140.304688 336.777344 139.542969 336.707031 138.917969 C 336.632812 138.296875 335.808594 137.917969 334.875 138.082031 C 333.375 138.34375 333.257812 137.984375 333.84375 134.910156 C 334.207031 133.003906 334.472656 130.484375 334.429688 129.3125 C 334.308594 125.992188 335.136719 125.445312 338.023438 126.9375 C 340.507812 128.222656 340.691406 128.203125 340.691406 126.65625 C 340.691406 125.742188 339.671875 123.613281 338.425781 121.925781 C 335.726562 118.269531 335.714844 118.21875 337.746094 118.855469 C 339.179688 119.304688 339.195312 119.238281 337.882812 118.148438 C 336.308594 116.835938 336.210938 116.589844 336.054688 113.539062 C 335.976562 112.007812 335.847656 111.894531 335.535156 113.085938 C 335.304688 113.960938 334.585938 114.675781 333.933594 114.675781 C 332.265625 114.675781 331.464844 111.054688 333 110.464844 C 333.675781 110.203125 334.007812 109.410156 333.734375 108.699219 C 333.375 107.757812 333.679688 107.574219 334.855469 108.023438 C 336.125 108.511719 336.34375 108.304688 335.875 107.082031 C 335.496094 106.09375 335.628906 105.734375 336.230469 106.109375 C 336.757812 106.433594 336.960938 107.296875 336.679688 108.027344 C 336.398438 108.761719 337.175781 111.160156 338.40625 113.363281 C 339.636719 115.566406 340.4375 118.089844 340.1875 118.96875 C 339.925781 119.875 340.179688 119.710938 340.773438 118.585938 C 341.640625 116.949219 341.46875 116.039062 339.792969 113.328125 C 338.675781 111.523438 337.941406 109.871094 338.15625 109.65625 C 338.691406 109.121094 343.976562 116.707031 344.734375 119.097656 C 345.070312 120.152344 345.640625 121.019531 346.003906 121.019531 C 347.390625 121.019531 357.003906 142.417969 357.003906 145.507812 C 357.003906 146.300781 356.347656 146.03125 355.15625 144.753906 C 353.496094 142.972656 351.566406 142.121094 351.566406 143.171875 C 351.566406 143.796875 355.328125 150.023438 355.707031 150.023438 C 355.890625 150.023438 355.785156 149.355469 355.472656 148.535156 C 355.003906 147.316406 355.199219 147.21875 356.566406 147.984375 C 357.484375 148.496094 358.3125 149.675781 358.410156 150.601562 C 358.507812 151.53125 358.847656 153.511719 359.164062 155.007812 C 359.480469 156.503906 360.335938 161.898438 361.066406 167 C 362.503906 177.023438 361.796875 189.949219 359.191406 201.417969 C 358.488281 204.511719 357.910156 208.386719 357.90625 210.027344 C 357.898438 215.027344 356.132812 219.972656 354.171875 220.488281 C 353.1875 220.742188 351.378906 222.941406 350.148438 225.367188 C 347.824219 229.957031 346.335938 231.28125 347.484375 227.742188 Z M 353.546875 140.761719 C 352.894531 140.113281 352.472656 140.058594 352.472656 140.625 C 352.472656 141.835938 353.546875 142.90625 354.152344 142.300781 C 354.410156 142.046875 354.136719 141.351562 353.546875 140.761719 Z M 351.160156 140.730469 C 350.402344 137.277344 347.300781 131.910156 346.054688 131.902344 C 344.398438 131.894531 342.101562 135.679688 342.695312 137.449219 C 342.914062 138.113281 343.878906 138.695312 344.839844 138.746094 C 349.550781 138.992188 350.652344 139.199219 350.554688 139.824219 C 350.386719 140.875 350.621094 141.863281 351.035156 141.863281 C 351.238281 141.863281 351.296875 141.355469 351.160156 140.730469 Z M 223.769531 223.816406 C 223.769531 223.027344 224.253906 222.542969 224.84375 222.738281 C 226.527344 223.300781 226.804688 225.25 225.203125 225.25 C 224.414062 225.25 223.769531 224.605469 223.769531 223.816406 Z M 226.949219 222.546875 C 226.636719 222.039062 227.015625 221.625 227.792969 221.625 C 229.386719 221.625 229.621094 222.167969 228.363281 222.945312 C 227.898438 223.234375 227.261719 223.054688 226.949219 222.546875 Z M 207.984375 220.136719 C 207.222656 218.160156 208.230469 217.238281 209.300781 218.933594 C 210.375 220.628906 210.394531 221.625 209.363281 221.625 C 208.917969 221.625 208.296875 220.957031 207.984375 220.136719 Z M 200.203125 210.777344 C 200.203125 210.292969 199.589844 210.132812 198.84375 210.421875 C 197.191406 211.054688 197.042969 209.523438 198.628906 208.207031 C 199.472656 207.503906 200.039062 207.828125 200.808594 209.457031 C 201.378906 210.664062 201.476562 211.65625 201.023438 211.65625 C 200.570312 211.65625 200.203125 211.257812 200.203125 210.777344 Z M 182.507812 209.609375 C 181.523438 209.066406 180.183594 207.878906 179.53125 206.964844 C 178.269531 205.203125 175.730469 204.703125 175.730469 206.214844 C 175.730469 206.714844 174.914062 207.125 173.917969 207.125 C 172.921875 207.125 172.105469 206.714844 172.105469 206.214844 C 172.105469 205.71875 171.289062 205.308594 170.292969 205.308594 C 169.296875 205.308594 168.480469 204.902344 168.480469 204.402344 C 168.480469 203.90625 168.890625 203.496094 169.394531 203.496094 C 171.183594 203.496094 168.144531 200.046875 165.058594 198.578125 C 162.996094 197.59375 162.132812 196.652344 162.472656 195.765625 C 162.777344 194.976562 162.457031 194.433594 161.683594 194.433594 C 160.898438 194.433594 160.585938 194.972656 160.902344 195.792969 C 161.28125 196.78125 160.792969 197.152344 159.113281 197.152344 C 157.84375 197.152344 156.550781 196.746094 156.242188 196.246094 C 155.9375 195.75 156.523438 195.339844 157.550781 195.339844 C 158.578125 195.339844 159.46875 194.933594 159.53125 194.433594 C 159.59375 193.933594 159.695312 193.152344 159.757812 192.695312 C 159.941406 191.347656 161.230469 190.40625 161.230469 191.617188 C 161.230469 192.226562 161.589844 192.503906 162.03125 192.230469 C 162.476562 191.957031 163.339844 192.34375 163.957031 193.085938 C 164.574219 193.828125 164.742188 194.433594 164.332031 194.433594 C 163.921875 194.433594 164.058594 194.90625 164.636719 195.484375 C 165.429688 196.277344 166.003906 196.265625 167.011719 195.429688 C 168.074219 194.546875 169.210938 194.773438 172.769531 196.578125 C 175.210938 197.8125 177.738281 199.46875 178.390625 200.253906 C 179.042969 201.042969 180.703125 201.683594 182.074219 201.683594 C 184.597656 201.683594 187.09375 199.753906 185.996094 198.65625 C 185.667969 198.328125 185.851562 198.058594 186.402344 198.058594 C 188.335938 198.058594 188.496094 199.867188 186.734375 201.757812 C 185.539062 203.039062 184.355469 203.480469 183.136719 203.09375 C 179.964844 202.085938 179.773438 204.519531 182.808594 207.234375 C 185.777344 209.882812 185.59375 211.3125 182.507812 209.609375 Z M 193.300781 206.957031 C 192.882812 206.273438 193.144531 206.097656 194.054688 206.445312 C 194.820312 206.738281 195.863281 206.570312 196.363281 206.066406 C 196.980469 205.453125 197.480469 205.476562 197.886719 206.136719 C 198.222656 206.679688 198.371094 207.152344 198.21875 207.191406 C 195.339844 207.882812 193.828125 207.808594 193.300781 206.957031 Z M 152.496094 204.265625 C 152.066406 203.570312 150.605469 202.296875 149.25 201.4375 C 145.785156 199.234375 144.488281 196.605469 146.488281 195.835938 C 147.335938 195.511719 147.738281 195.539062 147.378906 195.898438 C 146.460938 196.816406 149.484375 199.957031 150.613281 199.257812 C 151.136719 198.933594 151.265625 199.128906 150.910156 199.707031 C 150.527344 200.320312 151.1875 200.953125 152.582031 201.304688 C 155.066406 201.925781 155.285156 202.367188 154.070312 204.285156 C 153.40625 205.335938 153.160156 205.332031 152.496094 204.265625 Z M 155.4375 204.019531 C 155.707031 203.3125 156.554688 202.492188 157.320312 202.199219 C 158.316406 201.816406 158.554688 202.074219 158.15625 203.109375 C 157.851562 203.902344 157.605469 204.722656 157.605469 204.929688 C 157.605469 205.140625 157.003906 205.308594 156.273438 205.308594 C 155.492188 205.308594 155.148438 204.773438 155.4375 204.019531 Z M 190.234375 203.496094 C 189.011719 201.214844 190.03125 201.214844 192.953125 203.496094 C 195.195312 205.25 195.195312 205.269531 193.210938 205.289062 C 192.105469 205.300781 190.765625 204.496094 190.234375 203.496094 Z M 161.230469 203.097656 C 161.230469 202.878906 161.636719 202.445312 162.136719 202.136719 C 162.632812 201.828125 163.042969 202.007812 163.042969 202.539062 C 163.042969 203.066406 162.632812 203.496094 162.136719 203.496094 C 161.636719 203.496094 161.230469 203.316406 161.230469 203.097656 Z M 164.476562 201.804688 C 164.085938 201.175781 164.011719 200.414062 164.308594 200.113281 C 165.121094 199.300781 166.007812 200.496094 165.566406 201.808594 C 165.261719 202.730469 165.046875 202.730469 164.476562 201.804688 Z M 151.875 198.375 C 151.535156 198.035156 151.210938 195.886719 151.152344 193.601562 C 151.0625 190.105469 150.953125 189.871094 150.472656 192.117188 C 150.15625 193.582031 149.59375 194.707031 149.21875 194.609375 C 148.84375 194.511719 148.175781 194.433594 147.734375 194.433594 C 145.894531 194.433594 145.792969 188.242188 147.5625 183.882812 C 149.300781 179.59375 149.542969 179.660156 149.902344 184.554688 C 150.160156 188.035156 151.210938 189.214844 153.632812 188.753906 C 155.050781 188.480469 155.789062 188.761719 155.789062 189.574219 C 155.789062 190.253906 154.871094 190.835938 153.75 190.867188 L 151.710938 190.921875 L 153.75 191.742188 C 154.871094 192.195312 155.785156 193.085938 155.777344 193.726562 C 155.765625 194.621094 155.582031 194.605469 154.984375 193.65625 C 154.554688 192.980469 153.976562 192.796875 153.699219 193.246094 C 153.417969 193.699219 153.566406 194.660156 154.023438 195.382812 C 154.480469 196.109375 154.832031 197.3125 154.800781 198.058594 C 154.753906 199.125 154.632812 199.152344 154.25 198.183594 C 153.902344 197.3125 153.570312 197.25 153.125 197.96875 C 152.777344 198.53125 152.214844 198.714844 151.875 198.375 Z M 242.046875 195.339844 C 242.503906 193.972656 243.960938 193.832031 244.386719 195.113281 C 244.597656 195.738281 244.085938 196.246094 243.253906 196.246094 C 242.425781 196.246094 241.878906 195.839844 242.046875 195.339844 Z M 165.832031 194.054688 C 165.792969 193.101562 166.007812 192.566406 166.308594 192.867188 C 166.609375 193.167969 166.640625 193.949219 166.378906 194.605469 C 166.089844 195.328125 165.875 195.113281 165.832031 194.054688 Z M 143.492188 188.769531 C 142.457031 180.273438 142.441406 179.886719 143.136719 179.457031 C 143.488281 179.238281 144.058594 181.601562 144.402344 184.707031 C 144.746094 187.8125 145.25 191.273438 145.519531 192.394531 C 145.792969 193.515625 145.605469 194.433594 145.101562 194.433594 C 144.597656 194.433594 143.875 191.882812 143.492188 188.769531 Z M 157.535156 194.207031 C 156.855469 191.914062 156.867188 189.449219 157.570312 188.246094 C 158.246094 187.085938 158.460938 187.640625 158.480469 190.582031 C 158.496094 192.699219 158.304688 194.433594 158.058594 194.433594 C 157.808594 194.433594 157.574219 194.332031 157.535156 194.207031 Z M 198.390625 186.710938 C 198.390625 185.953125 197.371094 184.867188 196.125 184.296875 C 194.152344 183.398438 192.984375 181.746094 194.324219 181.746094 C 195.160156 181.746094 198.828125 183.988281 199.507812 184.917969 C 200.476562 186.230469 200.351562 188.089844 199.296875 188.089844 C 198.796875 188.089844 198.390625 187.46875 198.390625 186.710938 Z M 153.070312 180.839844 C 152.414062 179.609375 152.402344 179.027344 153.039062 179.027344 C 153.554688 179.027344 153.976562 178.390625 153.976562 177.613281 C 153.976562 176.835938 154.386719 176.453125 154.882812 176.757812 C 156.046875 177.476562 156.074219 182.652344 154.914062 182.652344 C 154.433594 182.652344 153.605469 181.835938 153.070312 180.839844 Z M 148.554688 177.945312 C 148.5625 177.292969 148.960938 176.148438 149.445312 175.398438 C 150.160156 174.292969 150.328125 174.410156 150.339844 176.027344 C 150.347656 177.117188 149.945312 178.265625 149.445312 178.574219 C 148.949219 178.878906 148.546875 178.597656 148.554688 177.945312 Z M 142.984375 175.171875 C 142.625 166.128906 145.832031 145.398438 147.691406 144.734375 C 148.15625 144.570312 148.539062 143.515625 148.539062 142.398438 C 148.539062 139.941406 152.757812 129.203125 154.382812 127.519531 C 155.34375 126.523438 155.640625 126.570312 156.109375 127.792969 C 156.46875 128.734375 156.316406 129.046875 155.683594 128.65625 C 155.027344 128.25 154.890625 128.667969 155.277344 129.898438 C 155.671875 131.140625 155.277344 132.304688 154.074219 133.421875 C 152.167969 135.199219 150.351562 139.207031 150.351562 141.644531 C 150.351562 142.875 150.570312 142.828125 151.683594 141.359375 C 152.414062 140.390625 153.027344 138.476562 153.042969 137.105469 C 153.058594 135.734375 153.480469 134.613281 153.976562 134.613281 C 155.617188 134.613281 154.925781 140.824219 152.84375 144.78125 C 151.097656 148.105469 150.765625 148.371094 150.515625 146.621094 C 150.355469 145.5 149.894531 144.582031 149.488281 144.582031 C 147.71875 144.582031 146.851562 155.777344 148.539062 156.820312 C 150.046875 157.75 149.648438 161.167969 148.101562 160.574219 C 146.101562 159.808594 145.175781 162.433594 145.097656 169.054688 C 144.992188 178.003906 144.976562 178.117188 144.007812 178.117188 C 143.507812 178.117188 143.046875 176.792969 142.984375 175.171875 Z M 151.464844 175.03125 C 151.742188 173.574219 151.519531 172.984375 150.789062 173.265625 C 149.351562 173.816406 148.101562 166.410156 149.410156 165.101562 C 150.0625 164.453125 150.351562 164.972656 150.351562 166.785156 C 150.351562 168.390625 151.285156 170.382812 152.757812 171.917969 C 154.765625 174.015625 154.96875 174.65625 154.003906 175.820312 C 152.277344 177.902344 150.992188 177.5 151.464844 175.03125 Z M 258.027344 159.8125 C 258.871094 158.964844 259.355469 158.964844 260.203125 159.8125 C 261.046875 160.65625 260.804688 160.898438 259.113281 160.898438 C 257.421875 160.898438 257.179688 160.65625 258.027344 159.8125 Z M 263.644531 159.941406 C 263.644531 159.363281 264.222656 159.113281 264.929688 159.382812 C 265.636719 159.65625 266.449219 159.265625 266.738281 158.519531 C 267.054688 157.695312 267.707031 157.4375 268.398438 157.867188 C 269.023438 158.257812 270.417969 158.464844 271.488281 158.324219 C 272.5625 158.1875 273.710938 158.503906 274.035156 159.03125 C 274.367188 159.566406 273.90625 160.015625 272.988281 160.046875 C 272.085938 160.078125 269.617188 160.304688 267.496094 160.546875 C 264.929688 160.839844 263.644531 160.640625 263.644531 159.941406 Z M 276.152344 159.8125 C 277 158.964844 277.484375 158.964844 278.328125 159.8125 C 279.175781 160.65625 278.933594 160.898438 277.242188 160.898438 C 275.550781 160.898438 275.308594 160.65625 276.152344 159.8125 Z M 255.242188 154.929688 C 253.859375 154.179688 252.265625 153.851562 251.703125 154.199219 C 251.074219 154.589844 250.925781 154.429688 251.324219 153.789062 C 251.734375 153.121094 251.269531 152.742188 250.050781 152.742188 C 248.996094 152.742188 248.328125 153.0625 248.570312 153.453125 C 248.8125 153.84375 248.226562 154.164062 247.265625 154.164062 C 244.855469 154.164062 245.078125 152.902344 247.699219 151.707031 C 249.460938 150.90625 250.945312 151.128906 255.402344 152.855469 C 260.832031 154.960938 262.464844 156.402344 259.339844 156.332031 C 258.46875 156.308594 256.621094 155.679688 255.242188 154.929688 Z M 336.15625 142.824219 C 336.15625 142.296875 336.5625 141.863281 337.0625 141.863281 C 337.558594 141.863281 337.96875 142.042969 337.96875 142.265625 C 337.96875 142.484375 337.558594 142.914062 337.0625 143.222656 C 336.5625 143.53125 336.15625 143.351562 336.15625 142.824219 Z M 337.96875 126.054688 C 337.96875 125.835938 338.375 125.40625 338.875 125.097656 C 339.371094 124.789062 339.78125 124.96875 339.78125 125.496094 C 339.78125 126.023438 339.371094 126.457031 338.875 126.457031 C 338.375 126.457031 337.96875 126.277344 337.96875 126.054688 Z M 158.507812 121.578125 C 158.507812 120.832031 158.914062 119.964844 159.414062 119.660156 C 159.910156 119.351562 160.320312 119.710938 160.320312 120.457031 C 160.320312 121.207031 159.910156 122.070312 159.414062 122.378906 C 158.914062 122.683594 158.507812 122.324219 158.507812 121.578125 Z M 162.132812 121.523438 C 162.132812 121.304688 162.539062 120.871094 163.039062 120.566406 C 163.539062 120.257812 163.945312 120.4375 163.945312 120.964844 C 163.945312 121.492188 163.539062 121.925781 163.039062 121.925781 C 162.539062 121.925781 162.132812 121.746094 162.132812 121.523438 Z M 167.570312 116.539062 C 167.570312 116.011719 167.980469 115.578125 168.476562 115.578125 C 168.976562 115.578125 169.382812 115.757812 169.382812 115.980469 C 169.382812 116.199219 168.976562 116.632812 168.476562 116.9375 C 167.980469 117.246094 167.570312 117.066406 167.570312 116.539062 Z M 168.910156 108.296875 C 168.601562 107.800781 167.871094 107.679688 167.28125 108.035156 C 166.671875 108.402344 166.746094 108.015625 167.457031 107.144531 C 168.75 105.546875 171.664062 105.074219 172.445312 106.335938 C 172.691406 106.734375 172.121094 107.539062 171.179688 108.128906 C 170.074219 108.820312 169.269531 108.878906 168.910156 108.296875 Z M 288.742188 95.535156 C 287.839844 95.011719 286.492188 94.816406 285.746094 95.101562 C 284.984375 95.394531 284.636719 95.230469 284.949219 94.722656 C 285.253906 94.230469 285.003906 93.828125 284.394531 93.828125 C 282.382812 93.828125 284.433594 92.628906 286.890625 92.363281 C 289.714844 92.0625 294.761719 94.421875 293.984375 95.679688 C 293.285156 96.808594 290.8125 96.742188 288.742188 95.535156 Z M 288.742188 95.535156 " clip-rule="nonzero"/></clipPath><radialGradient gradientTransform="matrix(1.003015, 0, 0, 0.996985, -78.357111, -101.667778)" gradientUnits="userSpaceOnUse" r="253.86083" cx="223.733616" id="5692310819" cy="150.228257" fx="223.733616" fy="150.228257"><stop stop-opacity="1" stop-color="rgb(22.558594%, 22.53418%, 23.326111%)" offset="0"/><stop stop-opacity="1" stop-color="rgb(22.294617%, 22.227478%, 23.00415%)" offset="0.03125"/><stop stop-opacity="1" stop-color="rgb(22.04895%, 21.940613%, 22.703552%)" offset="0.0585938"/><stop stop-opacity="1" stop-color="rgb(21.801758%, 21.653748%, 22.402954%)" offset="0.0859375"/><stop stop-opacity="1" stop-color="rgb(21.556091%, 21.365356%, 22.102356%)" offset="0.113281"/><stop stop-opacity="1" stop-color="rgb(21.327209%, 21.098328%, 21.82312%)" offset="0.140625"/><stop stop-opacity="1" stop-color="rgb(21.116638%, 20.852661%, 21.565247%)" offset="0.164062"/><stop stop-opacity="1" stop-color="rgb(20.906067%, 20.606995%, 21.307373%)" offset="0.1875"/><stop stop-opacity="1" stop-color="rgb(20.695496%, 20.361328%, 21.0495%)" offset="0.210938"/><stop stop-opacity="1" stop-color="rgb(20.484924%, 20.114136%, 20.791626%)" offset="0.234375"/><stop stop-opacity="1" stop-color="rgb(20.291138%, 19.889832%, 20.555115%)" offset="0.257812"/><stop stop-opacity="1" stop-color="rgb(20.114136%, 19.683838%, 20.339966%)" offset="0.277344"/><stop stop-opacity="1" stop-color="rgb(19.93866%, 19.47937%, 20.126343%)" offset="0.296875"/><stop stop-opacity="1" stop-color="rgb(19.763184%, 19.273376%, 19.911194%)" offset="0.316406"/><stop stop-opacity="1" stop-color="rgb(19.587708%, 19.068909%, 19.696045%)" offset="0.335938"/><stop stop-opacity="1" stop-color="rgb(19.412231%, 18.864441%, 19.480896%)" offset="0.355469"/><stop stop-opacity="1" stop-color="rgb(19.235229%, 18.658447%, 19.265747%)" offset="0.375"/><stop stop-opacity="1" stop-color="rgb(18.989563%, 18.371582%, 18.965149%)" offset="0.394531"/><stop stop-opacity="1" stop-color="rgb(18.673706%, 18.002319%, 18.579102%)" offset="0.429688"/><stop stop-opacity="1" stop-color="rgb(18.374634%, 17.652893%, 18.212891%)" offset="0.464844"/><stop stop-opacity="1" stop-color="rgb(18.093872%, 17.324829%, 17.869568%)" offset="0.496094"/><stop stop-opacity="1" stop-color="rgb(17.829895%, 17.018127%, 17.547607%)" offset="0.527344"/><stop stop-opacity="1" stop-color="rgb(17.582703%, 16.731262%, 17.247009%)" offset="0.554688"/><stop stop-opacity="1" stop-color="rgb(17.355347%, 16.464233%, 16.967773%)" offset="0.582031"/><stop stop-opacity="1" stop-color="rgb(17.144775%, 16.218567%, 16.7099%)" offset="0.605469"/><stop stop-opacity="1" stop-color="rgb(16.950989%, 15.992737%, 16.473389%)" offset="0.628906"/><stop stop-opacity="1" stop-color="rgb(16.775513%, 15.788269%, 16.25824%)" offset="0.648438"/><stop stop-opacity="1" stop-color="rgb(16.598511%, 15.582275%, 16.043091%)" offset="0.667969"/><stop stop-opacity="1" stop-color="rgb(16.423035%, 15.377808%, 15.829468%)" offset="0.6875"/><stop stop-opacity="1" stop-color="rgb(16.177368%, 15.090942%, 15.52887%)" offset="0.707031"/><stop stop-opacity="1" stop-color="rgb(15.878296%, 14.741516%, 15.162659%)" offset="0.742188"/><stop stop-opacity="1" stop-color="rgb(15.614319%, 14.434814%, 14.840698%)" offset="0.773438"/><stop stop-opacity="1" stop-color="rgb(15.386963%, 14.167786%, 14.561462%)" offset="0.800781"/><stop stop-opacity="1" stop-color="rgb(15.193176%, 13.941956%, 14.324951%)" offset="0.824219"/><stop stop-opacity="1" stop-color="rgb(15.0177%, 13.737488%, 14.109802%)" offset="0.84375"/><stop stop-opacity="1" stop-color="rgb(14.788818%, 13.470459%, 13.830566%)" offset="0.863281"/><stop stop-opacity="1" stop-color="rgb(14.543152%, 13.183594%, 13.529968%)" offset="0.894531"/><stop stop-opacity="1" stop-color="rgb(14.349365%, 12.957764%, 13.293457%)" offset="0.917969"/><stop stop-opacity="1" stop-color="rgb(14.120483%, 12.690735%, 13.014221%)" offset="0.9375"/><stop stop-opacity="1" stop-color="rgb(13.839722%, 12.362671%, 12.670898%)" offset="0.96875"/><stop stop-opacity="1" stop-color="rgb(13.699341%, 12.199402%, 12.5%)" offset="1"/></radialGradient></defs><rect x="-37.5" width="450" fill="#ffffff" y="-37.499999" height="449.999989" fill-opacity="1"/><rect x="-37.5" width="450" fill="#fafafa" y="-37.499999" height="449.999989" fill-opacity="1"/><g clip-path="url(#08e78d804d)"><g clip-path="url(#7f71f27fae)"><g clip-path="url(#cbd9e02198)"><path fill="#1c486f" d="M 185.597656 73.046875 C 188.445312 75.894531 193.0625 75.894531 195.90625 73.046875 L 205.882812 63.070312 C 218.789062 50.164062 239.816406 50.164062 252.761719 63.113281 C 265.710938 76.058594 265.710938 97.085938 252.804688 109.992188 L 242.828125 119.96875 C 239.980469 122.8125 239.980469 127.433594 242.828125 130.277344 C 245.671875 133.121094 250.289062 133.121094 253.132812 130.277344 L 261.710938 121.699219 C 279.726562 103.683594 282.039062 74.328125 265.214844 55.113281 C 246.910156 34.25 214.914062 33.425781 195.578125 52.761719 L 185.597656 62.742188 C 182.753906 65.585938 182.753906 70.203125 185.597656 73.046875 Z M 185.597656 73.046875 " fill-opacity="1" fill-rule="nonzero"/></g></g></g><g clip-path="url(#6156b41106)"><g clip-path="url(#e90fd8a87a)"><g clip-path="url(#f71beaae49)"><path fill="#ef8121" d="M 159.996094 315.445312 L 258.949219 193.8125 C 266.824219 184.125 266.082031 170.105469 257.257812 161.28125 L 154.59375 58.617188 C 145.769531 49.792969 131.710938 49.09375 122.0625 56.925781 L 91.757812 81.542969 C 71.429688 98.074219 74.5625 129.988281 97.652344 142.273438 L 110.1875 148.953125 C 124.453125 156.539062 131.132812 174.269531 123.300781 190.679688 C 120.578125 196.371094 115.753906 200.78125 110.148438 203.75 L 92.046875 213.355469 C 67.058594 226.632812 62.03125 260.277344 82.027344 280.273438 L 119.300781 317.546875 C 130.84375 329.007812 149.769531 328.0625 159.996094 315.445312 Z M 159.996094 315.445312 " fill-opacity="1" fill-rule="nonzero"/></g></g></g><g clip-path="url(#a6c9bd312b)"><g clip-path="url(#1deab5a2ff)"><g clip-path="url(#806be5a5fe)"><path fill="#1c486f" d="M 102.023438 164.375 L 29.539062 125.78125 C 18.984375 120.175781 7.195312 130.8125 11.6875 141.902344 L 19.355469 160.707031 C 23.398438 170.683594 23.4375 181.855469 19.355469 191.875 L 11.6875 210.675781 C 7.195312 221.769531 18.984375 232.40625 29.539062 226.796875 L 102.023438 188.207031 C 111.589844 183.175781 111.589844 169.488281 102.023438 164.375 Z M 102.023438 164.375 " fill-opacity="1" fill-rule="nonzero"/></g></g></g><g clip-path="url(#3015bc213a)"><path fill="#e4e4e4" d="M 362.082031 177.9375 C 362.082031 179.75 362.039062 181.558594 361.949219 183.367188 C 361.859375 185.179688 361.726562 186.984375 361.550781 188.785156 C 361.371094 190.589844 361.152344 192.386719 360.886719 194.179688 C 360.621094 195.96875 360.308594 197.753906 359.957031 199.53125 C 359.601562 201.308594 359.207031 203.074219 358.765625 204.832031 C 358.328125 206.589844 357.84375 208.332031 357.316406 210.066406 C 356.792969 211.800781 356.222656 213.519531 355.613281 215.226562 C 355.003906 216.929688 354.351562 218.621094 353.660156 220.292969 C 352.964844 221.96875 352.230469 223.621094 351.457031 225.261719 C 350.683594 226.898438 349.867188 228.515625 349.015625 230.113281 C 348.160156 231.710938 347.269531 233.285156 346.335938 234.839844 C 345.40625 236.394531 344.4375 237.921875 343.429688 239.429688 C 342.425781 240.933594 341.382812 242.414062 340.300781 243.871094 C 339.222656 245.324219 338.109375 246.753906 336.960938 248.152344 C 335.8125 249.554688 334.628906 250.925781 333.410156 252.265625 C 332.195312 253.609375 330.945312 254.921875 329.664062 256.199219 C 328.382812 257.480469 327.074219 258.730469 325.730469 259.945312 C 324.390625 261.164062 323.019531 262.347656 321.617188 263.496094 C 320.21875 264.644531 318.789062 265.757812 317.335938 266.835938 C 315.878906 267.917969 314.398438 268.960938 312.894531 269.964844 C 311.386719 270.972656 309.855469 271.941406 308.304688 272.871094 C 306.75 273.804688 305.175781 274.695312 303.578125 275.550781 C 301.980469 276.402344 300.363281 277.21875 298.722656 277.992188 C 297.085938 278.765625 295.429688 279.5 293.757812 280.195312 C 292.085938 280.886719 290.394531 281.539062 288.691406 282.148438 C 286.984375 282.757812 285.265625 283.328125 283.53125 283.851562 C 281.796875 284.378906 280.050781 284.863281 278.296875 285.300781 C 276.539062 285.742188 274.773438 286.140625 272.996094 286.492188 C 271.21875 286.84375 269.433594 287.15625 267.640625 287.421875 C 265.851562 287.6875 264.054688 287.910156 262.25 288.085938 C 260.449219 288.261719 258.640625 288.398438 256.832031 288.484375 C 255.023438 288.574219 253.214844 288.617188 251.402344 288.617188 C 249.589844 288.617188 247.78125 288.574219 245.972656 288.484375 C 244.164062 288.398438 242.355469 288.261719 240.554688 288.085938 C 238.75 287.910156 236.953125 287.6875 235.160156 287.421875 C 233.371094 287.15625 231.585938 286.84375 229.808594 286.492188 C 228.03125 286.140625 226.265625 285.742188 224.507812 285.300781 C 222.75 284.863281 221.007812 284.378906 219.273438 283.851562 C 217.539062 283.328125 215.820312 282.757812 214.113281 282.148438 C 212.410156 281.539062 210.71875 280.886719 209.046875 280.195312 C 207.371094 279.5 205.71875 278.765625 204.078125 277.992188 C 202.441406 277.21875 200.824219 276.402344 199.226562 275.550781 C 197.628906 274.695312 196.054688 273.804688 194.5 272.871094 C 192.945312 271.941406 191.417969 270.972656 189.910156 269.964844 C 188.40625 268.960938 186.925781 267.917969 185.46875 266.835938 C 184.015625 265.757812 182.585938 264.644531 181.1875 263.496094 C 179.785156 262.347656 178.414062 261.164062 177.074219 259.945312 C 175.730469 258.730469 174.417969 257.480469 173.140625 256.199219 C 171.859375 254.921875 170.609375 253.609375 169.394531 252.265625 C 168.175781 250.925781 166.992188 249.554688 165.84375 248.152344 C 164.695312 246.753906 163.582031 245.324219 162.503906 243.871094 C 161.421875 242.414062 160.378906 240.933594 159.375 239.429688 C 158.367188 237.921875 157.398438 236.394531 156.46875 234.839844 C 155.535156 233.285156 154.644531 231.710938 153.789062 230.113281 C 152.9375 228.515625 152.121094 226.898438 151.347656 225.261719 C 150.574219 223.621094 149.839844 221.96875 149.144531 220.292969 C 148.453125 218.621094 147.800781 216.929688 147.191406 215.226562 C 146.582031 213.519531 146.011719 211.800781 145.488281 210.066406 C 144.960938 208.332031 144.476562 206.589844 144.039062 204.832031 C 143.597656 203.074219 143.203125 201.308594 142.847656 199.53125 C 142.496094 197.753906 142.183594 195.96875 141.917969 194.179688 C 141.652344 192.386719 141.429688 190.589844 141.253906 188.785156 C 141.078125 186.984375 140.941406 185.179688 140.855469 183.367188 C 140.765625 181.558594 140.722656 179.75 140.722656 177.9375 C 140.722656 176.125 140.765625 174.316406 140.855469 172.507812 C 140.941406 170.699219 141.078125 168.890625 141.253906 167.089844 C 141.429688 165.285156 141.652344 163.488281 141.917969 161.699219 C 142.183594 159.90625 142.496094 158.121094 142.847656 156.34375 C 143.203125 154.566406 143.597656 152.800781 144.039062 151.042969 C 144.476562 149.289062 144.960938 147.542969 145.488281 145.808594 C 146.011719 144.074219 146.582031 142.355469 147.191406 140.648438 C 147.800781 138.945312 148.453125 137.253906 149.144531 135.582031 C 149.839844 133.910156 150.574219 132.253906 151.347656 130.617188 C 152.121094 128.976562 152.9375 127.359375 153.789062 125.761719 C 154.644531 124.164062 155.535156 122.589844 156.46875 121.035156 C 157.398438 119.484375 158.367188 117.953125 159.375 116.445312 C 160.378906 114.941406 161.421875 113.460938 162.503906 112.003906 C 163.582031 110.550781 164.695312 109.121094 165.84375 107.722656 C 166.992188 106.320312 168.175781 104.949219 169.394531 103.609375 C 170.609375 102.265625 171.859375 100.957031 173.140625 99.675781 C 174.417969 98.394531 175.730469 97.144531 177.074219 95.929688 C 178.414062 94.710938 179.785156 93.527344 181.1875 92.378906 C 182.585938 91.230469 184.015625 90.117188 185.46875 89.039062 C 186.925781 87.957031 188.40625 86.917969 189.910156 85.910156 C 191.417969 84.902344 192.945312 83.933594 194.5 83.003906 C 196.054688 82.070312 197.628906 81.179688 199.226562 80.324219 C 200.824219 79.472656 202.441406 78.65625 204.078125 77.882812 C 205.71875 77.109375 207.371094 76.375 209.046875 75.683594 C 210.71875 74.988281 212.410156 74.335938 214.113281 73.726562 C 215.820312 73.117188 217.539062 72.546875 219.273438 72.023438 C 221.007812 71.496094 222.75 71.015625 224.507812 70.574219 C 226.265625 70.132812 228.03125 69.738281 229.808594 69.382812 C 231.585938 69.03125 233.371094 68.71875 235.160156 68.453125 C 236.953125 68.1875 238.75 67.96875 240.554688 67.789062 C 242.355469 67.613281 244.164062 67.480469 245.972656 67.390625 C 247.78125 67.300781 249.589844 67.257812 251.402344 67.257812 C 253.214844 67.257812 255.023438 67.300781 256.832031 67.390625 C 258.640625 67.480469 260.449219 67.613281 262.25 67.789062 C 264.054688 67.96875 265.851562 68.1875 267.640625 68.453125 C 269.433594 68.71875 271.21875 69.03125 272.996094 69.382812 C 274.773438 69.738281 276.539062 70.132812 278.296875 70.574219 C 280.050781 71.015625 281.796875 71.496094 283.53125 72.023438 C 285.265625 72.546875 286.984375 73.117188 288.691406 73.726562 C 290.394531 74.335938 292.085938 74.988281 293.757812 75.683594 C 295.429688 76.375 297.085938 77.109375 298.722656 77.882812 C 300.363281 78.65625 301.980469 79.472656 303.578125 80.324219 C 305.175781 81.179688 306.75 82.070312 308.304688 83.003906 C 309.855469 83.933594 311.386719 84.902344 312.894531 85.910156 C 314.398438 86.917969 315.878906 87.957031 317.335938 89.039062 C 318.789062 90.117188 320.21875 91.230469 321.617188 92.378906 C 323.019531 93.527344 324.390625 94.710938 325.730469 95.929688 C 327.074219 97.144531 328.382812 98.394531 329.664062 99.675781 C 330.945312 100.957031 332.195312 102.265625 333.410156 103.609375 C 334.628906 104.949219 335.8125 106.320312 336.960938 107.722656 C 338.109375 109.121094 339.222656 110.550781 340.300781 112.003906 C 341.382812 113.460938 342.425781 114.941406 343.429688 116.445312 C 344.4375 117.953125 345.40625 119.484375 346.335938 121.035156 C 347.269531 122.589844 348.160156 124.164062 349.015625 125.761719 C 349.867188 127.359375 350.683594 128.976562 351.457031 130.617188 C 352.230469 132.253906 352.964844 133.910156 353.660156 135.582031 C 354.351562 137.253906 355.003906 138.945312 355.613281 140.648438 C 356.222656 142.355469 356.792969 144.074219 357.316406 145.808594 C 357.84375 147.542969 358.328125 149.289062 358.765625 151.042969 C 359.207031 152.800781 359.601562 154.566406 359.957031 156.34375 C 360.308594 158.121094 360.621094 159.90625 360.886719 161.699219 C 361.152344 163.488281 361.371094 165.285156 361.550781 167.089844 C 361.726562 168.890625 361.859375 170.699219 361.949219 172.507812 C 362.039062 174.316406 362.082031 176.125 362.082031 177.9375 Z M 362.082031 177.9375 " fill-opacity="1" fill-rule="evenodd"/></g><g clip-path="url(#a5ca924bf0)"><g clip-path="url(#2d3b56fe03)"><path fill="url(#5692310819)" d="M 142.441406 68.089844 L 142.441406 286.898438 L 362.503906 286.898438 L 362.503906 68.089844 Z M 142.441406 68.089844 " fill-rule="nonzero"/></g></g></svg>